<?xml version="1.0" encoding="UTF-8" standalone="no"?>
<!DOCTYPE svg PUBLIC "-//W3C//DTD SVG 1.1//EN" "http://www.w3.org/Graphics/SVG/1.1/DTD/svg11.dtd">
<!-- Created with Vectornator (http://vectornator.io/) -->
<svg height="100%" stroke-miterlimit="10" style="fill-rule:nonzero;clip-rule:evenodd;stroke-linecap:round;stroke-linejoin:round;" version="1.1" viewBox="0 0 585.705 178.2" width="100%" xml:space="preserve" xmlns="http://www.w3.org/2000/svg" xmlns:vectornator="http://vectornator.io" xmlns:xlink="http://www.w3.org/1999/xlink">
<defs>
<linearGradient gradientTransform="matrix(1.68459 0 0 1.68459 -293.05 -128.951)" gradientUnits="userSpaceOnUse" id="LinearGradient" x1="529.613" x2="637.625" y1="377.201" y2="478.565">
<stop offset="0.0006317" stop-color="#5ac5ff"/>
<stop offset="1" stop-color="#73ffad"/>
</linearGradient>
<linearGradient gradientTransform="matrix(1 0 0 1 -449.08 435.162)" gradientUnits="userSpaceOnUse" id="LinearGradient_2" x1="59.8541" x2="403.028" y1="139.193" y2="139.193">
<stop offset="0.0006317" stop-color="#5ac5ff"/>
<stop offset="1" stop-color="#73ffad"/>
</linearGradient>
<linearGradient gradientTransform="matrix(2.33607 0 0 2.33607 -366.79 -511.285)" gradientUnits="userSpaceOnUse" id="LinearGradient_3" x1="160.299" x2="400.133" y1="242.552" y2="274.454">
<stop offset="0" stop-color="#5ac5ff"/>
<stop offset="1" stop-color="#73ffad"/>
</linearGradient>
<linearGradient gradientTransform="matrix(2.33607 0 0 2.33607 -366.79 -511.285)" gradientUnits="userSpaceOnUse" id="LinearGradient_4" x1="160.207" x2="403.968" y1="243.416" y2="276.151">
<stop offset="0" stop-color="#5ac5ff"/>
<stop offset="1" stop-color="#73ffad"/>
</linearGradient>
<linearGradient gradientTransform="matrix(2.33607 0 0 2.33607 -366.79 -511.285)" gradientUnits="userSpaceOnUse" id="LinearGradient_5" x1="158.789" x2="410.185" y1="244.339" y2="277.492">
<stop offset="0" stop-color="#5ac5ff"/>
<stop offset="1" stop-color="#73ffad"/>
</linearGradient>
<linearGradient gradientTransform="matrix(2.33607 0 0 2.33607 -366.79 -511.285)" gradientUnits="userSpaceOnUse" id="LinearGradient_6" x1="163.142" x2="403.047" y1="240.145" y2="273.883">
<stop offset="0" stop-color="#5ac5ff"/>
<stop offset="1" stop-color="#73ffad"/>
</linearGradient>
<linearGradient gradientTransform="matrix(2.33607 0 0 2.33607 -366.79 -511.285)" gradientUnits="userSpaceOnUse" id="LinearGradient_7" x1="170.572" x2="407.978" y1="241.598" y2="275.179">
<stop offset="0" stop-color="#5ac5ff"/>
<stop offset="1" stop-color="#73ffad"/>
</linearGradient>
<linearGradient gradientTransform="matrix(2.33607 0 0 2.33607 -366.79 -511.285)" gradientUnits="userSpaceOnUse" id="LinearGradient_8" x1="171.584" x2="396.546" y1="244.503" y2="276.245">
<stop offset="0" stop-color="#5ac5ff"/>
<stop offset="1" stop-color="#73ffad"/>
</linearGradient>
<linearGradient gradientTransform="matrix(2.33607 0 0 2.33607 -366.79 -511.285)" gradientUnits="userSpaceOnUse" id="LinearGradient_9" x1="161.75" x2="407.976" y1="242.665" y2="276.26">
<stop offset="0" stop-color="#5ac5ff"/>
<stop offset="1" stop-color="#73ffad"/>
</linearGradient>
</defs>
<clipPath id="ArtboardFrame">
<rect height="178.2" width="585.705" x="0" y="0"/>
</clipPath>
<g clip-path="url(#ArtboardFrame)" id="Capa-1" vectornator:layerName="Capa 1">
<path d="M752.909 503.507C745.217 504.072 737.985 507.618 732.843 513.575L720.187 528.258C716.868 526.254 713.561 524.252 709.909 522.665C700.029 518.369 689.545 516.232 678.376 516.232C667.207 516.232 656.653 518.369 646.773 522.665C636.892 526.961 628.345 532.77 621.042 540.144C613.74 547.519 607.929 556.134 603.633 566.014C599.337 575.895 597.2 586.448 597.2 597.618C597.2 608.787 599.337 619.271 603.633 629.151C607.928 639.031 613.74 647.716 621.042 655.091C628.345 662.465 636.892 668.275 646.773 672.57C656.653 676.866 667.207 679.003 678.376 679.003C689.545 679.003 700.029 676.866 709.909 672.57C719.789 668.275 728.475 662.465 735.849 655.091C743.224 647.716 749.033 639.031 753.329 629.151C757.625 619.271 759.761 608.787 759.761 597.618C759.761 590.095 758.421 582.96 756.475 576.013L777.241 551.961C787.819 539.707 786.488 521.147 774.234 510.569C768.275 505.424 760.594 502.943 752.909 503.507ZM753.748 514.904C758.317 514.568 763.012 516.009 766.753 519.239C774.236 525.698 775.031 536.996 768.571 544.479L752 563.637L691.311 633.975C684.496 641.87 672.437 642.288 665.091 634.884L633.278 602.792C626.316 595.774 626.33 584.443 633.348 577.481C640.366 570.519 651.697 570.603 658.659 577.621L676.838 595.94L729.556 534.9L741.512 521.057C744.742 517.315 749.18 515.239 753.748 514.904Z" fill="url(#LinearGradient)" fill-rule="nonzero" opacity="1" stroke="none" vectornator:layerName="Curva 2"/>
<path d="M-389.226 482.762L-46.0527 482.762L-46.0527 665.948L-389.226 665.948L-389.226 482.762Z" fill="url(#LinearGradient_2)" fill-rule="nonzero" opacity="1" stroke="none" vectornator:layerName="Rectángulo 1"/>
<path d="M37.8802 54.8916C38.1713 54.2368 38.6624 53.6729 39.3536 53.1999C40.0448 52.727 40.7906 52.4905 41.591 52.4905L56.8707 52.4905C57.5983 52.4905 58.3077 52.727 58.999 53.1999C59.6902 53.6729 60.1813 54.2368 60.4724 54.8916L92.3415 129.107C92.6325 129.762 92.5779 130.453 92.1778 131.181C91.7776 131.909 90.9954 132.272 89.8312 132.272L71.1682 132.272C70.3678 132.272 69.622 132.036 68.9308 131.563C68.2395 131.09 67.712 130.526 67.3482 129.871L64.4014 123.323C64.0376 122.668 63.5101 122.104 62.8189 121.631C62.1277 121.158 61.4182 120.922 60.6906 120.922L37.6619 120.922C36.8616 120.922 36.1158 121.158 35.4245 121.631C34.7333 122.104 34.2422 122.668 33.9511 123.323L30.8952 129.871C30.6042 130.526 30.113 131.09 29.4218 131.563C28.7306 132.036 28.0212 132.272 27.2936 132.272L8.52133 132.272C8.15753 132.272 7.77554 132.2 7.37535 132.054C6.97517 131.909 6.64775 131.69 6.39309 131.399C6.13842 131.108 5.97471 130.744 5.90195 130.308C5.82919 129.871 5.93833 129.362 6.22937 128.78M44.3195 102.368L54.033 102.368C54.7607 102.368 55.2882 102.131 55.6156 101.658C55.943 101.185 55.9248 100.622 55.561 99.9668C54.8334 98.1477 53.9603 96.0195 52.9416 93.582C51.923 91.1445 50.9771 88.8708 50.104 86.7607C49.8129 86.1059 49.4855 85.7785 49.1217 85.7785C48.7579 85.7785 48.4305 86.1059 48.1394 86.7607L42.6824 99.9668C42.3914 100.622 42.3914 101.185 42.6824 101.658" fill="url(#LinearGradient_3)" fill-rule="nonzero" opacity="1" stroke="none"/>
<path d="M133.706 110.772L124.211 110.772C123.483 110.772 122.865 111.026 122.355 111.536C121.846 112.045 121.591 112.663 121.591 113.391L121.591 129.653C121.591 130.381 121.337 130.999 120.827 131.508C120.318 132.018 119.699 132.272 118.972 132.272L102.492 132.272C101.764 132.272 101.145 132.018 100.636 131.508C100.127 130.999 99.8722 130.381 99.8722 129.653L99.8722 55.0007C99.8722 54.2731 100.127 53.6547 100.636 53.1454C101.145 52.636 101.764 52.3814 102.492 52.3814L135.889 52.3814C139.963 52.3814 143.801 53.1454 147.403 54.6733C151.005 56.2013 154.133 58.3114 156.789 61.0035C159.445 63.6956 161.555 66.8243 163.119 70.3896C164.684 73.9549 165.466 77.7748 165.466 81.8494C165.466 85.924 164.811 89.7257 163.501 93.2546C162.192 96.7835 160.209 99.8394 157.553 102.422C154.897 105.005 151.587 107.043 147.621 108.534M134.47 72.4633L124.211 72.4633C123.483 72.4633 122.865 72.7179 122.355 73.2273C121.846 73.7366 121.591 74.355 121.591 75.0827L121.591 87.9613C121.591 88.6889 121.846 89.3073 122.355 89.8167C122.865 90.326 123.483 90.5806 124.211 90.5806L135.889 90.5806C138.654 90.5806 140.673 89.6893 141.946 87.9067C143.219 86.1241 143.856 84.105 143.856 81.8494C143.856 80.6852 143.656 79.5392 143.256 78.4114C142.855 77.2837 142.255 76.2832 141.455 75.4101C140.654 74.537 139.672 73.8275 138.508 73.2818" fill="url(#LinearGradient_4)" fill-rule="nonzero" opacity="1" stroke="none"/>
<path d="M207.703 110.772L198.208 110.772C197.48 110.772 196.862 111.026 196.353 111.536C195.843 112.045 195.589 112.663 195.589 113.391L195.589 129.653C195.589 130.381 195.334 130.999 194.825 131.508C194.315 132.018 193.697 132.272 192.969 132.272L176.489 132.272C175.761 132.272 175.143 132.018 174.634 131.508C174.124 130.999 173.87 130.381 173.87 129.653L173.87 55.0007C173.87 54.2731 174.124 53.6547 174.634 53.1454C175.143 52.636 175.761 52.3814 176.489 52.3814L209.886 52.3814C213.961 52.3814 217.799 53.1454 221.4 54.6733C225.002 56.2013 228.131 58.3114 230.787 61.0035C233.442 63.6956 235.552 66.8243 237.117 70.3896C238.681 73.9549 239.463 77.7748 239.463 81.8494C239.463 85.924 238.808 89.7257 237.499 93.2546C236.189 96.7835 234.206 99.8394 231.551 102.422C228.895 105.005 225.584 107.043 221.619 108.534M208.467 72.4633L198.208 72.4633C197.48 72.4633 196.862 72.7179 196.353 73.2273C195.843 73.7366 195.589 74.355 195.589 75.0827L195.589 87.9613C195.589 88.6889 195.843 89.3073 196.353 89.8167C196.862 90.326 197.48 90.5806 198.208 90.5806L209.886 90.5806C212.651 90.5806 214.67 89.6893 215.943 87.9067C217.217 86.1241 217.853 84.105 217.853 81.8494C217.853 80.6852 217.653 79.5392 217.253 78.4114C216.853 77.2837 216.253 76.2832 215.452 75.4101C214.652 74.537 213.67 73.8275 212.506 73.2818" fill="url(#LinearGradient_5)" fill-rule="nonzero" opacity="1" stroke="none"/>
<path d="M247.976 55.1099C247.976 54.3823 248.231 53.7638 248.74 53.2545C249.25 52.7452 249.868 52.4905 250.596 52.4905L267.076 52.4905C267.804 52.4905 268.422 52.7452 268.931 53.2545C269.441 53.7638 269.695 54.3823 269.695 55.1099L269.695 99.3119C269.695 102.15 270.15 104.496 271.06 106.351C271.969 108.207 273.097 109.662 274.443 110.717C275.789 111.772 277.226 112.518 278.754 112.955C280.282 113.391 281.664 113.609 282.901 113.609C284.138 113.609 285.521 113.391 287.049 112.955C288.577 112.518 289.995 111.772 291.305 110.717C292.615 109.662 293.724 108.207 294.634 106.351C295.543 104.496 295.998 102.15 295.998 99.3119L295.998 55.1099C295.998 54.3823 296.253 53.7638 296.762 53.2545C297.272 52.7452 297.89 52.4905 298.618 52.4905L315.098 52.4905C315.825 52.4905 316.444 52.7452 316.953 53.2545C317.463 53.7638 317.717 54.3823 317.717 55.1099L317.717 99.3119C317.717 104.478 316.899 109.171 315.262 113.391C313.624 117.611 311.278 121.213 308.222 124.196C305.166 127.179 301.492 129.489 297.199 131.126C292.906 132.764 288.14 133.582 282.901 133.582C277.663 133.582 272.897 132.764 268.604 131.126C264.311 129.489 260.637 127.179 257.581 124.196C254.525 121.213 252.16 117.611 250.487 113.391C248.813 109.171 247.976 104.478 247.976 99.3119" fill="url(#LinearGradient_6)" fill-rule="nonzero" opacity="1" stroke="none"/>
<path d="M409.068 55.0007L409.068 129.653C409.068 130.381 408.813 130.999 408.304 131.508C407.795 132.018 407.176 132.272 406.449 132.272L390.296 132.272C389.568 132.272 388.804 132.054 388.004 131.618C387.204 131.181 386.585 130.672 386.149 130.09L357.663 90.0349C357.226 89.4529 356.771 89.2164 356.299 89.3255C355.826 89.4347 355.589 89.853 355.589 90.5806L355.589 129.653C355.589 130.381 355.334 130.999 354.825 131.508C354.316 132.018 353.697 132.272 352.97 132.272L336.708 132.272C335.98 132.272 335.362 132.018 334.852 131.508C334.343 130.999 334.088 130.381 334.088 129.653L334.088 55.0007C334.088 54.2731 334.343 53.6547 334.852 53.1454C335.362 52.636 335.98 52.3814 336.708 52.3814L353.079 52.3814C353.806 52.3814 354.57 52.5815 355.371 52.9816C356.171 53.3818 356.79 53.873 357.226 54.455L385.603 94.5097C386.039 95.0918 386.494 95.3465 386.967 95.2737C387.44 95.2009 387.676 94.8008 387.676 94.0732L387.676 55.0007C387.676 54.2731 387.931 53.6547 388.44 53.1454C388.95 52.636 389.568 52.3814 390.296 52.3814L406.449 52.3814C407.176 52.3814 407.795 52.636 408.304 53.1454" fill="url(#LinearGradient_7)" fill-rule="nonzero" opacity="1" stroke="none"/>
<path d="M478.918 72.4633L463.638 72.4633C462.911 72.4633 462.292 72.7179 461.783 73.2273C461.274 73.7366 461.019 74.355 461.019 75.0827L461.019 129.653C461.019 130.381 460.783 130.999 460.31 131.508C459.837 132.018 459.2 132.272 458.4 132.272L442.029 132.272C441.301 132.272 440.683 132.018 440.173 131.508C439.664 130.999 439.409 130.381 439.409 129.653L439.409 75.0827C439.409 74.355 439.173 73.7366 438.7 73.2273C438.227 72.7179 437.59 72.4633 436.79 72.4633L421.292 72.4633C420.564 72.4633 419.946 72.2086 419.436 71.6993C418.927 71.19 418.672 70.5715 418.672 69.8439L418.672 55.0007C418.672 54.2731 418.927 53.6547 419.436 53.1454C419.946 52.636 420.564 52.3814 421.292 52.3814L478.918 52.3814C479.719 52.3814 480.355 52.636 480.828 53.1454C481.301 53.6547 481.538 54.2731 481.538 55.0007L481.538 69.8439C481.538 70.5715 481.301 71.19 480.828 71.6993" fill="url(#LinearGradient_8)" fill-rule="nonzero" opacity="1" stroke="none"/>
<path d="M563.836 44.5126C559.927 44.7995 556.252 46.6018 553.639 49.6286L547.209 57.0894C545.522 56.0713 543.842 55.0539 541.986 54.2472C536.966 52.0644 531.639 50.9786 525.963 50.9786C520.288 50.9786 514.925 52.0645 509.905 54.2472C504.884 56.43 500.541 59.3819 496.831 63.1291C493.12 66.8763 490.167 71.2538 487.984 76.2743C485.801 81.2948 484.716 86.6574 484.716 92.3328C484.716 98.0081 485.801 103.335 487.984 108.356C490.167 113.376 493.12 117.789 496.831 121.536C500.541 125.284 504.884 128.236 509.905 130.418C514.925 132.601 520.288 133.687 525.963 133.687C531.639 133.687 536.966 132.601 541.986 130.418C547.007 128.236 551.42 125.284 555.167 121.536C558.914 117.789 561.866 113.376 564.049 108.356C566.232 103.335 567.317 98.0082 567.317 92.3328C567.317 88.5101 566.636 84.8847 565.648 81.3547L576.199 69.1333C581.101 63.4554 581.187 54.916 576.187 49.6106C573.426 46.6799 569.403 44.658 563.882 44.5486M564.262 50.3036C566.583 50.1332 568.969 50.8652 570.87 52.5063C574.672 55.7887 575.076 61.5295 571.794 65.3318L563.374 75.0664L532.536 110.807C529.073 114.819 522.946 115.031 519.213 111.269L503.048 94.9618C499.51 91.3959 499.518 85.6386 503.084 82.1008C506.65 78.5631 512.407 78.6059 515.945 82.1719L525.182 91.4801L551.97 60.4645L556.603 55.0992C556.603 55.0992 558.514 52.7944 560.428 51.6121C562.343 50.4298 564.26 50.3701 564.26 50.3701" fill="url(#LinearGradient_9)" fill-rule="nonzero" opacity="1" stroke="none" vectornator:layerName="Curva 3"/>
</g>
</svg>
