<?xml version="1.0" encoding="UTF-8" standalone="no"?>
<!DOCTYPE svg PUBLIC "-//W3C//DTD SVG 1.1//EN" "http://www.w3.org/Graphics/SVG/1.1/DTD/svg11.dtd">
<!-- Created with Vectornator (http://vectornator.io/) -->
<svg height="100%" stroke-miterlimit="10" style="fill-rule:nonzero;clip-rule:evenodd;stroke-linecap:round;stroke-linejoin:round;" version="1.1" viewBox="0 0 573.996 574.355" width="100%" xml:space="preserve" xmlns="http://www.w3.org/2000/svg" xmlns:vectornator="http://vectornator.io" xmlns:xlink="http://www.w3.org/1999/xlink">
<defs>
<linearGradient gradientTransform="matrix(5.03839 0 0 5.03839 -2655.5 -1866.71)" gradientUnits="userSpaceOnUse" id="LinearGradient" x1="529.613" x2="637.625" y1="377.201" y2="478.565">
<stop offset="0.0006317" stop-color="#5ac5ff"/>
<stop offset="1" stop-color="#73ffad"/>
</linearGradient>
<linearGradient gradientTransform="matrix(1 0 0 1 -444.776 441.906)" gradientUnits="userSpaceOnUse" id="LinearGradient_2" x1="59.8541" x2="403.028" y1="139.193" y2="139.193">
<stop offset="0.0006317" stop-color="#5ac5ff"/>
<stop offset="1" stop-color="#73ffad"/>
</linearGradient>
</defs>
<clipPath id="ArtboardFrame">
<rect height="574.355" width="573.996" x="0" y="0"/>
</clipPath>
<g clip-path="url(#ArtboardFrame)" id="Capa-1" vectornator:layerName="Capa 1">
<path d="M472.832 24.8887C449.826 26.5773 428.194 37.1855 412.815 55.0016L374.965 98.9164C365.038 92.9235 355.145 86.9353 344.225 82.187C314.674 69.3387 283.318 62.9481 249.912 62.9481C216.507 62.948 184.942 69.3393 155.391 82.187C125.84 95.0353 100.278 112.41 78.4359 134.466C56.5946 156.523 39.2148 182.289 26.3656 211.84C13.5168 241.391 7.12674 272.955 7.12674 306.361C7.1272 339.767 13.5163 371.123 26.3656 400.673C39.2133 430.224 56.594 456.2 78.4359 478.256C100.278 500.312 125.84 517.688 155.391 530.535C184.942 543.384 216.507 549.774 249.912 549.774C283.318 549.774 314.674 543.383 344.225 530.535C373.775 517.687 399.751 500.312 421.807 478.256C443.864 456.2 461.238 430.224 474.087 400.673C486.936 371.123 493.326 339.767 493.326 306.361C493.325 283.861 489.317 262.521 483.497 241.744L545.605 169.807C577.241 133.159 573.262 77.6469 536.613 46.0096C518.788 30.6222 495.816 23.2022 472.832 24.8887ZM475.341 58.9749C489.005 57.9718 503.047 62.2803 514.237 71.9402C536.618 91.2602 538.994 125.051 519.674 147.432L470.114 204.73L288.599 415.102C268.216 438.716 232.149 439.966 210.18 417.821L115.032 321.836C94.2083 300.847 94.2512 266.959 115.241 246.135C136.23 225.312 170.118 225.564 190.941 246.554L245.312 301.342L402.987 118.783L438.746 77.3772C448.406 66.1868 461.678 59.978 475.341 58.9749Z" fill="url(#LinearGradient)" fill-rule="nonzero" opacity="1" stroke="none" vectornator:layerName="Curva 2"/>
<path d="M-384.922 489.505L-41.7481 489.505L-41.7481 672.692L-384.922 672.692L-384.922 489.505Z" fill="url(#LinearGradient_2)" fill-rule="nonzero" opacity="1" stroke="none" vectornator:layerName="Rectángulo 1"/>
<g opacity="1" vectornator:layerName="Grupo 1">
<path d="M-322.481 557.486C-322.356 557.205-322.146 556.964-321.85 556.762C-321.554 556.559-321.235 556.458-320.892 556.458L-314.352 556.458C-314.04 556.458-313.736 556.559-313.441 556.762C-313.145 556.964-312.934 557.205-312.81 557.486L-299.168 589.255C-299.043 589.536-299.066 589.831-299.238 590.143C-299.409 590.454-299.744 590.61-300.242 590.61L-308.231 590.61C-308.574 590.61-308.893 590.509-309.189 590.306C-309.485 590.104-309.711 589.863-309.866 589.582L-311.128 586.779C-311.284 586.499-311.509 586.257-311.805 586.055C-312.101 585.853-312.405 585.751-312.716 585.751L-322.574 585.751C-322.917 585.751-323.236 585.853-323.532 586.055C-323.828 586.257-324.038 586.499-324.163 586.779L-325.471 589.582C-325.595 589.863-325.806 590.104-326.102 590.306C-326.397 590.509-326.701 590.61-327.013 590.61L-335.048 590.61C-335.204 590.61-335.368 590.579-335.539 590.517C-335.71 590.454-335.85 590.361-335.959 590.236C-336.068 590.112-336.139 589.956-336.17 589.769C-336.201 589.582-336.154 589.364-336.03 589.115L-322.481 557.486ZM-319.724 577.809L-315.566 577.809C-315.255 577.809-315.029 577.708-314.889 577.505C-314.749 577.303-314.756 577.061-314.912 576.781C-315.224 576.002-315.597 575.091-316.033 574.048C-316.47 573.005-316.874 572.031-317.248 571.128C-317.373 570.848-317.513 570.708-317.669 570.708C-317.824 570.708-317.965 570.848-318.089 571.128L-320.425 576.781C-320.55 577.061-320.55 577.303-320.425 577.505C-320.301 577.708-320.067 577.809-319.724 577.809Z" fill="#ffffff" fill-rule="nonzero" opacity="1" stroke="none"/>
<path d="M-281.461 581.406L-285.525 581.406C-285.837 581.406-286.102 581.515-286.32 581.733C-286.538 581.951-286.647 582.216-286.647 582.528L-286.647 589.489C-286.647 589.8-286.756 590.065-286.974 590.283C-287.192 590.501-287.457 590.61-287.768 590.61L-294.823 590.61C-295.134 590.61-295.399 590.501-295.617 590.283C-295.835 590.065-295.944 589.8-295.944 589.489L-295.944 557.533C-295.944 557.221-295.835 556.956-295.617 556.738C-295.399 556.52-295.134 556.411-294.823 556.411L-280.526 556.411C-278.782 556.411-277.139 556.738-275.597 557.392C-274.056 558.046-272.716 558.95-271.58 560.102C-270.443 561.255-269.539 562.594-268.87 564.12C-268.2 565.646-267.865 567.281-267.865 569.026C-267.865 570.77-268.146 572.397-268.706 573.908C-269.267 575.418-270.116 576.727-271.253 577.832C-272.389 578.938-273.807 579.81-275.504 580.449C-277.202 581.087-279.187 581.406-281.461 581.406ZM-281.134 565.008L-285.525 565.008C-285.837 565.008-286.102 565.117-286.32 565.335C-286.538 565.553-286.647 565.817-286.647 566.129L-286.647 571.642C-286.647 571.953-286.538 572.218-286.32 572.436C-286.102 572.654-285.837 572.763-285.525 572.763L-280.526 572.763C-279.343 572.763-278.479 572.382-277.933 571.619C-277.388 570.855-277.116 569.991-277.116 569.026C-277.116 568.527-277.202 568.037-277.373 567.554C-277.544 567.071-277.801 566.643-278.144 566.269C-278.486 565.895-278.907 565.592-279.405 565.358C-279.903 565.124-280.48 565.008-281.134 565.008Z" fill="#ffffff" fill-rule="nonzero" opacity="1" stroke="none"/>
<path d="M-249.785 581.406L-253.849 581.406C-254.161 581.406-254.426 581.515-254.644 581.733C-254.862 581.951-254.971 582.216-254.971 582.528L-254.971 589.489C-254.971 589.8-255.08 590.065-255.298 590.283C-255.516 590.501-255.78 590.61-256.092 590.61L-263.147 590.61C-263.458 590.61-263.723 590.501-263.941 590.283C-264.159 590.065-264.268 589.8-264.268 589.489L-264.268 557.533C-264.268 557.221-264.159 556.956-263.941 556.738C-263.723 556.52-263.458 556.411-263.147 556.411L-248.85 556.411C-247.106 556.411-245.463 556.738-243.921 557.392C-242.38 558.046-241.04 558.95-239.904 560.102C-238.767 561.255-237.863 562.594-237.194 564.12C-236.524 565.646-236.189 567.281-236.189 569.026C-236.189 570.77-236.47 572.397-237.03 573.908C-237.591 575.418-238.44 576.727-239.576 577.832C-240.713 578.938-242.13 579.81-243.828 580.449C-245.525 581.087-247.511 581.406-249.785 581.406ZM-249.458 565.008L-253.849 565.008C-254.161 565.008-254.426 565.117-254.644 565.335C-254.862 565.553-254.971 565.817-254.971 566.129L-254.971 571.642C-254.971 571.953-254.862 572.218-254.644 572.436C-254.426 572.654-254.161 572.763-253.849 572.763L-248.85 572.763C-247.667 572.763-246.802 572.382-246.257 571.619C-245.712 570.855-245.44 569.991-245.44 569.026C-245.44 568.527-245.525 568.037-245.697 567.554C-245.868 567.071-246.125 566.643-246.468 566.269C-246.81 565.895-247.231 565.592-247.729 565.358C-248.227 565.124-248.804 565.008-249.458 565.008Z" fill="#ffffff" fill-rule="nonzero" opacity="1" stroke="none"/>
<path d="M-232.545 557.579C-232.545 557.268-232.436 557.003-232.218 556.785C-232 556.567-231.735 556.458-231.424 556.458L-224.369 556.458C-224.058 556.458-223.793 556.567-223.575 556.785C-223.357 557.003-223.248 557.268-223.248 557.579L-223.248 576.501C-223.248 577.715-223.053 578.72-222.664 579.514C-222.275 580.308-221.792 580.931-221.216 581.383C-220.639 581.835-220.024 582.154-219.37 582.341C-218.716 582.528-218.124 582.621-217.595 582.621C-217.065 582.621-216.474 582.528-215.819 582.341C-215.165 582.154-214.558 581.835-213.997 581.383C-213.437 580.931-212.962 580.308-212.572 579.514C-212.183 578.72-211.988 577.715-211.988 576.501L-211.988 557.579C-211.988 557.268-211.879 557.003-211.661 556.785C-211.443 556.567-211.179 556.458-210.867 556.458L-203.812 556.458C-203.501 556.458-203.236 556.567-203.018 556.785C-202.8 557.003-202.691 557.268-202.691 557.579L-202.691 576.501C-202.691 578.712-203.042 580.721-203.742 582.528C-204.443 584.334-205.448 585.876-206.756 587.153C-208.064 588.43-209.637 589.419-211.474 590.12C-213.312 590.82-215.352 591.171-217.595 591.171C-219.837 591.171-221.877 590.82-223.715 590.12C-225.553 589.419-227.126 588.43-228.434 587.153C-229.742 585.876-230.754 584.334-231.471 582.528C-232.187 580.721-232.545 578.712-232.545 576.501L-232.545 557.579Z" fill="#ffffff" fill-rule="nonzero" opacity="1" stroke="none"/>
<path d="M-163.587 557.533L-163.587 589.489C-163.587 589.8-163.696 590.065-163.914 590.283C-164.132 590.501-164.396 590.61-164.708 590.61L-171.622 590.61C-171.934 590.61-172.261 590.517-172.604 590.33C-172.946 590.143-173.211 589.925-173.398 589.676L-185.592 572.53C-185.779 572.28-185.973 572.179-186.176 572.226C-186.378 572.273-186.479 572.452-186.479 572.763L-186.479 589.489C-186.479 589.8-186.588 590.065-186.806 590.283C-187.024 590.501-187.289 590.61-187.601 590.61L-194.562 590.61C-194.873 590.61-195.138 590.501-195.356 590.283C-195.574 590.065-195.683 589.8-195.683 589.489L-195.683 557.533C-195.683 557.221-195.574 556.956-195.356 556.738C-195.138 556.52-194.873 556.411-194.562 556.411L-187.554 556.411C-187.242 556.411-186.915 556.497-186.573 556.668C-186.23 556.84-185.965 557.05-185.779 557.299L-173.631 574.445C-173.445 574.694-173.25 574.803-173.047 574.772C-172.845 574.741-172.744 574.57-172.744 574.258L-172.744 557.533C-172.744 557.221-172.635 556.956-172.417 556.738C-172.199 556.52-171.934 556.411-171.622 556.411L-164.708 556.411C-164.396 556.411-164.132 556.52-163.914 556.738C-163.696 556.956-163.587 557.221-163.587 557.533Z" fill="#ffffff" fill-rule="nonzero" opacity="1" stroke="none"/>
<path d="M-133.686 565.008L-140.227 565.008C-140.538 565.008-140.803 565.117-141.021 565.335C-141.239 565.553-141.348 565.817-141.348 566.129L-141.348 589.489C-141.348 589.8-141.449 590.065-141.652 590.283C-141.854 590.501-142.127 590.61-142.469 590.61L-149.477 590.61C-149.789 590.61-150.053 590.501-150.271 590.283C-150.49 590.065-150.599 589.8-150.599 589.489L-150.599 566.129C-150.599 565.817-150.7 565.553-150.902 565.335C-151.105 565.117-151.377 565.008-151.72 565.008L-158.354 565.008C-158.665 565.008-158.93 564.899-159.148 564.681C-159.366 564.463-159.475 564.198-159.475 563.886L-159.475 557.533C-159.475 557.221-159.366 556.956-159.148 556.738C-158.93 556.52-158.665 556.411-158.354 556.411L-133.686 556.411C-133.343 556.411-133.071 556.52-132.868 556.738C-132.666 556.956-132.565 557.221-132.565 557.533L-132.565 563.886C-132.565 564.198-132.666 564.463-132.868 564.681C-133.071 564.899-133.343 565.008-133.686 565.008Z" fill="#ffffff" fill-rule="nonzero" opacity="1" stroke="none"/>
<path d="M-97.3354 553.043C-99.0085 553.166-100.582 553.937-101.7 555.233L-104.453 558.427C-105.175 557.991-105.894 557.555-106.688 557.21C-108.838 556.276-111.118 555.811-113.547 555.811C-115.977 555.811-118.272 556.276-120.422 557.21C-122.571 558.144-124.43 559.408-126.018 561.012C-127.607 562.616-128.871 564.49-129.805 566.639C-130.739 568.788-131.204 571.084-131.204 573.513C-131.204 575.943-130.74 578.223-129.805 580.372C-128.871 582.521-127.607 584.41-126.018 586.014C-124.43 587.618-122.571 588.882-120.422 589.816C-118.272 590.751-115.977 591.216-113.547 591.216C-111.118 591.216-108.838 590.751-106.688 589.816C-104.539 588.882-102.65 587.618-101.046 586.014C-99.4421 584.41-98.1786 582.521-97.2441 580.372C-96.3097 578.223-95.8449 575.943-95.8449 573.513C-95.845 571.877-96.1365 570.325-96.5597 568.814L-92.0429 563.582C-89.7421 560.917-90.0315 556.88-92.6968 554.579C-93.9932 553.46-95.6638 552.92-97.3354 553.043ZM-97.1529 555.522C-96.1591 555.449-95.1379 555.762-94.3241 556.465C-92.6965 557.87-92.5237 560.327-93.9287 561.955L-97.5331 566.122L-110.734 581.422C-112.216 583.139-114.839 583.23-116.437 581.619L-123.357 574.639C-124.871 573.112-124.868 570.648-123.342 569.133C-121.815 567.619-119.351 567.637-117.836 569.164L-113.882 573.148L-102.415 559.871L-99.8143 556.86C-99.1118 556.046-98.1466 555.595-97.1529 555.522Z" fill="#ffffff" fill-rule="nonzero" opacity="1" stroke="none" vectornator:layerName="Curva 3"/>
</g>
<g fill="#ffffff" opacity="1" stroke="none" vectornator:layerName="Text 1">
<path d="M-333.316 621.727L-333.316 608.39L-329.093 608.39C-327.822 608.39-326.808 608.733-326.052 609.419C-325.295 610.106-324.917 611.027-324.917 612.184C-324.917 612.959-325.111 613.646-325.499 614.243C-325.887 614.841-326.417 615.274-327.091 615.544C-327.765 615.814-328.731 615.95-329.989 615.95L-331.4 615.95L-331.4 621.727L-333.316 621.727ZM-329.426 610.087L-331.4 610.087L-331.4 614.253L-329.312 614.253C-328.537 614.253-327.939 614.07-327.52 613.705C-327.1 613.339-326.891 612.816-326.891 612.136C-326.891 610.77-327.736 610.087-329.426 610.087Z"/>
<path d="M-321.638 612.956L-321.638 614.968L-321.543 614.815C-320.704 613.461-319.865 612.785-319.026 612.785C-318.371 612.785-317.688 613.115-316.976 613.776L-317.892 615.301C-318.495 614.729-319.055 614.443-319.569 614.443C-320.129 614.443-320.613 614.71-321.023 615.244C-321.433 615.778-321.638 616.41-321.638 617.141L-321.638 621.727L-323.383 621.727L-323.383 612.956L-321.638 612.956Z"/>
<path d="M-308.683 617.494L-314.851 617.494C-314.806 618.333-314.525 619-314.007 619.496C-313.489 619.992-312.82 620.239-312 620.239C-310.856 620.239-309.801 619.883-308.835 619.172L-308.835 620.869C-309.369 621.224-309.898 621.479-310.422 621.631C-310.947 621.784-311.562 621.86-312.267 621.86C-313.233 621.86-314.015 621.66-314.612 621.259C-315.21 620.859-315.688 620.32-316.047 619.644C-316.406 618.967-316.586 618.183-316.586 617.294C-316.586 615.959-316.207 614.874-315.451 614.038C-314.695 613.202-313.713 612.785-312.505 612.785C-311.342 612.785-310.415 613.191-309.722 614.005C-309.029 614.818-308.683 615.908-308.683 617.275L-308.683 617.494ZM-314.812 616.455L-310.399 616.455C-310.443 615.762-310.65 615.228-311.018 614.853C-311.387 614.478-311.883 614.291-312.505 614.291C-313.128 614.291-313.638 614.478-314.035 614.853C-314.433 615.228-314.692 615.762-314.812 616.455Z"/>
<path d="M-307.253 615.988C-307.253 615.053-306.911 614.315-306.228 613.771C-305.545 613.228-304.612 612.956-303.43 612.956L-299.817 612.956L-299.817 614.31L-301.59 614.31C-301.247 614.659-301.009 614.977-300.875 615.263C-300.742 615.549-300.675 615.876-300.675 616.245C-300.675 616.703-300.805 617.152-301.066 617.594C-301.326 618.036-301.662 618.374-302.072 618.609C-302.482 618.844-303.154 619.032-304.088 619.172C-304.742 619.267-305.07 619.493-305.07 619.849C-305.07 620.052-304.947 620.219-304.703 620.349C-304.458 620.479-304.015 620.614-303.373 620.754C-302.299 620.989-301.608 621.174-301.299 621.307C-300.991 621.441-300.713 621.631-300.465 621.879C-300.046 622.298-299.836 622.826-299.836 623.461C-299.836 624.294-300.206 624.958-300.947 625.454C-301.687 625.95-302.677 626.197-303.916 626.197C-305.168 626.197-306.168 625.948-306.914 625.449C-307.661 624.95-308.034 624.281-308.034 623.442C-308.034 622.254-307.3 621.488-305.832 621.145C-306.417 620.77-306.709 620.398-306.709 620.03C-306.709 619.75-306.584 619.496-306.333 619.267C-306.082 619.038-305.743 618.87-305.318 618.762C-306.608 618.19-307.253 617.265-307.253 615.988ZM-303.993 614.462C-304.463 614.462-304.863 614.621-305.194 614.939C-305.524 615.257-305.689 615.638-305.689 616.083C-305.689 616.534-305.527 616.908-305.203 617.203C-304.879 617.499-304.469 617.646-303.973 617.646C-303.484 617.646-303.076 617.495-302.748 617.194C-302.421 616.892-302.258 616.515-302.258 616.064C-302.258 615.606-302.423 615.225-302.753 614.92C-303.084 614.615-303.497 614.462-303.993 614.462ZM-304.402 622.136C-304.987 622.136-305.465 622.26-305.837 622.508C-306.209 622.756-306.395 623.074-306.395 623.461C-306.395 624.364-305.581 624.815-303.954 624.815C-303.185 624.815-302.59 624.702-302.167 624.477C-301.744 624.251-301.533 623.932-301.533 623.519C-301.533 623.112-301.8 622.78-302.334 622.523C-302.868 622.265-303.557 622.136-304.402 622.136Z"/>
<path d="M-292.887 621.727L-292.887 620.611C-293.255 621.012-293.676 621.323-294.15 621.545C-294.623 621.768-295.095 621.879-295.565 621.879C-296.118 621.879-296.628 621.741-297.095 621.464C-297.563 621.188-297.915 620.813-298.154 620.339C-298.392 619.866-298.511 619.08-298.511 617.98L-298.511 612.956L-296.776 612.956L-296.776 617.961C-296.776 618.883-296.644 619.526-296.38 619.891C-296.117 620.257-295.654 620.44-294.993 620.44C-294.167 620.44-293.465 620.036-292.887 619.229L-292.887 612.956L-291.152 612.956L-291.152 621.727L-292.887 621.727Z"/>
<path d="M-286.976 612.956L-286.976 614.072C-286.201 613.214-285.321 612.785-284.336 612.785C-283.789 612.785-283.281 612.926-282.81 613.209C-282.34 613.492-281.983 613.879-281.738 614.372C-281.493 614.864-281.371 615.644-281.371 616.712L-281.371 621.727L-283.106 621.727L-283.106 616.731C-283.106 615.835-283.242 615.195-283.516 614.81C-283.789 614.426-284.247 614.234-284.889 614.234C-285.708 614.234-286.404 614.644-286.976 615.463L-286.976 621.727L-288.749 621.727L-288.749 612.956L-286.976 612.956Z"/>
<path d="M-280.179 614.348L-276.919 611.145L-276.919 612.956L-274.145 612.956L-274.145 614.52L-276.919 614.52L-276.919 618.819C-276.919 619.823-276.503 620.325-275.67 620.325C-275.047 620.325-274.39 620.115-273.697 619.696L-273.697 621.317C-274.364 621.692-275.092 621.879-275.88 621.879C-276.674 621.879-277.335 621.647-277.863 621.183C-278.028 621.043-278.165 620.886-278.273 620.711C-278.381 620.536-278.471 620.308-278.544 620.025C-278.617 619.742-278.654 619.203-278.654 618.409L-278.654 614.52L-280.179 614.52L-280.179 614.348Z"/>
<path d="M-266.938 616.455L-266.938 620.182C-266.938 620.481-266.836 620.63-266.633 620.63C-266.423 620.63-266.096 620.475-265.651 620.163L-265.651 621.221C-266.045 621.475-266.361 621.649-266.6 621.741C-266.838 621.833-267.087 621.879-267.348 621.879C-268.091 621.879-268.53 621.587-268.663 621.002C-269.401 621.574-270.186 621.86-271.018 621.86C-271.628 621.86-272.137 621.658-272.543 621.255C-272.95 620.851-273.153 620.344-273.153 619.734C-273.153 619.181-272.955 618.687-272.558 618.252C-272.16 617.816-271.596 617.472-270.866 617.217L-268.644 616.455L-268.644 615.988C-268.644 614.933-269.172 614.405-270.227 614.405C-271.174 614.405-272.095 614.895-272.991 615.873L-272.991 613.976C-272.318 613.182-271.349 612.785-270.084 612.785C-269.137 612.785-268.377 613.032-267.805 613.528C-267.615 613.687-267.443 613.898-267.291 614.162C-267.138 614.426-267.041 614.69-267 614.953C-266.959 615.217-266.938 615.718-266.938 616.455ZM-268.644 619.992L-268.644 617.389L-269.807 617.837C-270.398 618.072-270.816 618.309-271.061 618.547C-271.306 618.786-271.428 619.083-271.428 619.439C-271.428 619.801-271.312 620.096-271.08 620.325C-270.848 620.554-270.548 620.668-270.179 620.668C-269.626 620.668-269.115 620.443-268.644 619.992Z"/>
<path d="M-264.393 624.033L-264.393 623.681C-264.107 623.407-263.907 623.133-263.792 622.856C-263.678 622.58-263.611 622.203-263.592 621.727C-264.266 621.529-264.602 621.113-264.602 620.478C-264.602 620.134-264.486 619.837-264.254 619.586C-264.022 619.335-263.748 619.21-263.43 619.21C-263.042 619.21-262.724 619.381-262.477 619.725C-262.229 620.068-262.105 620.506-262.105 621.04C-262.105 621.746-262.308 622.365-262.715 622.899C-263.122 623.433-263.681 623.811-264.393 624.033Z"/>
<path d="M-254.507 612.956L-254.507 614.968L-254.412 614.815C-253.573 613.461-252.734 612.785-251.895 612.785C-251.24 612.785-250.557 613.115-249.845 613.776L-250.761 615.301C-251.364 614.729-251.924 614.443-252.438 614.443C-252.998 614.443-253.482 614.71-253.892 615.244C-254.302 615.778-254.507 616.41-254.507 617.141L-254.507 621.727L-256.252 621.727L-256.252 612.956L-254.507 612.956Z"/>
<path d="M-241.552 617.494L-247.72 617.494C-247.675 618.333-247.394 619-246.876 619.496C-246.358 619.992-245.689 620.239-244.869 620.239C-243.725 620.239-242.67 619.883-241.704 619.172L-241.704 620.869C-242.238 621.224-242.767 621.479-243.292 621.631C-243.816 621.784-244.431 621.86-245.136 621.86C-246.102 621.86-246.884 621.66-247.481 621.259C-248.079 620.859-248.557 620.32-248.916 619.644C-249.275 618.967-249.455 618.183-249.455 617.294C-249.455 615.959-249.076 614.874-248.32 614.038C-247.564 613.202-246.582 612.785-245.374 612.785C-244.211 612.785-243.284 613.191-242.591 614.005C-241.898 614.818-241.552 615.908-241.552 617.275L-241.552 617.494ZM-247.681 616.455L-243.268 616.455C-243.312 615.762-243.519 615.228-243.887 614.853C-244.256 614.478-244.752 614.291-245.374 614.291C-245.997 614.291-246.507 614.478-246.905 614.853C-247.302 615.228-247.561 615.762-247.681 616.455Z"/>
<path d="M-240.103 621.097L-240.103 619.229C-239.613 619.572-239.113 619.85-238.601 620.063C-238.09 620.276-237.659 620.382-237.31 620.382C-236.947 620.382-236.636 620.293-236.375 620.115C-236.115 619.937-235.985 619.725-235.985 619.477C-235.985 619.223-236.069 619.011-236.237 618.843C-236.406 618.674-236.769 618.431-237.329 618.114C-238.447 617.491-239.18 616.958-239.526 616.517C-239.872 616.075-240.046 615.594-240.046 615.073C-240.046 614.399-239.783 613.849-239.259 613.423C-238.735 612.998-238.06 612.785-237.233 612.785C-236.375 612.785-235.495 613.026-234.593 613.509L-234.593 615.225C-235.622 614.602-236.464 614.291-237.119 614.291C-237.456 614.291-237.727 614.362-237.934 614.505C-238.141 614.648-238.244 614.837-238.244 615.073C-238.244 615.276-238.15 615.47-237.963 615.654C-237.775 615.838-237.446 616.061-236.976 616.321L-236.356 616.674C-234.895 617.5-234.164 618.415-234.164 619.42C-234.164 620.138-234.445 620.727-235.007 621.188C-235.57 621.649-236.293 621.879-237.176 621.879C-237.697 621.879-238.161 621.823-238.568 621.712C-238.975 621.601-239.486 621.396-240.103 621.097Z"/>
<path d="M-226.576 621.727L-226.576 620.611C-226.944 621.012-227.365 621.323-227.839 621.545C-228.312 621.768-228.784 621.879-229.254 621.879C-229.807 621.879-230.317 621.741-230.784 621.464C-231.251 621.188-231.604 620.813-231.842 620.339C-232.081 619.866-232.2 619.08-232.2 617.98L-232.2 612.956L-230.465 612.956L-230.465 617.961C-230.465 618.883-230.333 619.526-230.069 619.891C-229.806 620.257-229.343 620.44-228.682 620.44C-227.856 620.44-227.154 620.036-226.576 619.229L-226.576 612.956L-224.841 612.956L-224.841 621.727L-226.576 621.727Z"/>
<path d="M-214.926 617.494L-221.094 617.494C-221.05 618.333-220.768 619-220.25 619.496C-219.732 619.992-219.064 620.239-218.244 620.239C-217.1 620.239-216.045 619.883-215.079 619.172L-215.079 620.869C-215.613 621.224-216.142 621.479-216.666 621.631C-217.19 621.784-217.805 621.86-218.511 621.86C-219.477 621.86-220.258 621.66-220.856 621.259C-221.453 620.859-221.931 620.32-222.29 619.644C-222.65 618.967-222.829 618.183-222.829 617.294C-222.829 615.959-222.451 614.874-221.695 614.038C-220.938 613.202-219.956 612.785-218.749 612.785C-217.586 612.785-216.658 613.191-215.965 614.005C-215.273 614.818-214.926 615.908-214.926 617.275L-214.926 617.494ZM-221.056 616.455L-216.642 616.455C-216.687 615.762-216.893 615.228-217.262 614.853C-217.63 614.478-218.126 614.291-218.749 614.291C-219.372 614.291-219.882 614.478-220.279 614.853C-220.676 615.228-220.935 615.762-221.056 616.455Z"/>
<path d="M-213.01 608.409L-211.275 608.409L-211.275 621.727L-213.01 621.727L-213.01 608.409Z"/>
<path d="M-203.401 612.956L-201.523 612.956L-205.393 621.879L-205.975 621.879L-209.941 612.956L-208.043 612.956L-205.679 618.352L-203.401 612.956Z"/>
<path d="M-193.134 617.494L-199.302 617.494C-199.257 618.333-198.976 619-198.458 619.496C-197.94 619.992-197.271 620.239-196.451 620.239C-195.307 620.239-194.252 619.883-193.286 619.172L-193.286 620.869C-193.82 621.224-194.349 621.479-194.874 621.631C-195.398 621.784-196.013 621.86-196.718 621.86C-197.684 621.86-198.466 621.66-199.063 621.259C-199.661 620.859-200.139 620.32-200.498 619.644C-200.857 618.967-201.037 618.183-201.037 617.294C-201.037 615.959-200.659 614.874-199.902 614.038C-199.146 613.202-198.164 612.785-196.957 612.785C-195.794 612.785-194.866 613.191-194.173 614.005C-193.48 614.818-193.134 615.908-193.134 617.275L-193.134 617.494ZM-199.264 616.455L-194.85 616.455C-194.894 615.762-195.101 615.228-195.47 614.853C-195.838 614.478-196.334 614.291-196.957 614.291C-197.579 614.291-198.089 614.478-198.487 614.853C-198.884 615.228-199.143 615.762-199.264 616.455Z"/>
<path d="M-191.142 624.033L-191.142 623.681C-190.856 623.407-190.655 623.133-190.541 622.856C-190.427 622.58-190.36 622.203-190.341 621.727C-191.014 621.529-191.351 621.113-191.351 620.478C-191.351 620.134-191.235 619.837-191.003 619.586C-190.771 619.335-190.497 619.21-190.179 619.21C-189.791 619.21-189.473 619.381-189.225 619.725C-188.978 620.068-188.854 620.506-188.854 621.04C-188.854 621.746-189.057 622.365-189.464 622.899C-189.871 623.433-190.43 623.811-191.142 624.033Z"/>
<path d="M-177.605 616.455L-177.605 620.182C-177.605 620.481-177.503 620.63-177.3 620.63C-177.09 620.63-176.763 620.475-176.318 620.163L-176.318 621.221C-176.712 621.475-177.028 621.649-177.266 621.741C-177.505 621.833-177.754 621.879-178.015 621.879C-178.758 621.879-179.197 621.587-179.33 621.002C-180.067 621.574-180.852 621.86-181.685 621.86C-182.295 621.86-182.803 621.658-183.21 621.255C-183.617 620.851-183.82 620.344-183.82 619.734C-183.82 619.181-183.622 618.687-183.224 618.252C-182.827 617.816-182.263 617.472-181.532 617.217L-179.311 616.455L-179.311 615.988C-179.311 614.933-179.839 614.405-180.894 614.405C-181.841 614.405-182.762 614.895-183.658 615.873L-183.658 613.976C-182.985 613.182-182.015 612.785-180.751 612.785C-179.804 612.785-179.044 613.032-178.472 613.528C-178.282 613.687-178.11 613.898-177.958 614.162C-177.805 614.426-177.708 614.69-177.667 614.953C-177.625 615.217-177.605 615.718-177.605 616.455ZM-179.311 619.992L-179.311 617.389L-180.474 617.837C-181.065 618.072-181.483 618.309-181.728 618.547C-181.972 618.786-182.095 619.083-182.095 619.439C-182.095 619.801-181.979 620.096-181.747 620.325C-181.515 620.554-181.215 620.668-180.846 620.668C-180.293 620.668-179.781 620.443-179.311 619.992Z"/>
<path d="M-175.088 626.197L-175.088 612.956L-172.047 612.956C-170.49 612.956-169.278 613.344-168.41 614.119C-167.543 614.895-167.109 615.978-167.109 617.37C-167.109 618.685-167.517 619.766-168.334 620.611C-169.151 621.456-170.191 621.879-171.456 621.879C-172.015 621.879-172.635 621.755-173.315 621.507L-173.315 626.197L-175.088 626.197ZM-172.085 614.577L-173.315 614.577L-173.315 619.972C-172.781 620.246-172.222 620.382-171.637 620.382C-170.824 620.382-170.158 620.1-169.64 619.534C-169.122 618.968-168.863 618.241-168.863 617.351C-168.863 616.779-168.985 616.274-169.23 615.835C-169.475 615.397-169.808 615.077-170.231 614.877C-170.654 614.677-171.272 614.577-172.085 614.577Z"/>
<path d="M-165.326 626.197L-165.326 612.956L-162.285 612.956C-160.728 612.956-159.516 613.344-158.649 614.119C-157.781 614.895-157.347 615.978-157.347 617.37C-157.347 618.685-157.756 619.766-158.572 620.611C-159.389 621.456-160.43 621.879-161.694 621.879C-162.254 621.879-162.873 621.755-163.553 621.507L-163.553 626.197L-165.326 626.197ZM-162.323 614.577L-163.553 614.577L-163.553 619.972C-163.019 620.246-162.46 620.382-161.875 620.382C-161.062 620.382-160.396 620.1-159.878 619.534C-159.36 618.968-159.101 618.241-159.101 617.351C-159.101 616.779-159.224 616.274-159.468 615.835C-159.713 615.397-160.047 615.077-160.469 614.877C-160.892 614.677-161.51 614.577-162.323 614.577Z"/>
<path d="M-149.864 621.727L-149.864 620.611C-150.233 621.012-150.654 621.323-151.127 621.545C-151.601 621.768-152.072 621.879-152.543 621.879C-153.096 621.879-153.606 621.741-154.073 621.464C-154.54 621.188-154.893 620.813-155.131 620.339C-155.369 619.866-155.488 619.08-155.488 617.98L-155.488 612.956L-153.753 612.956L-153.753 617.961C-153.753 618.883-153.622 619.526-153.358 619.891C-153.094 620.257-152.632 620.44-151.971 620.44C-151.145 620.44-150.442 620.036-149.864 619.229L-149.864 612.956L-148.129 612.956L-148.129 621.727L-149.864 621.727Z"/>
<path d="M-143.954 612.956L-143.954 614.072C-143.178 613.214-142.298 612.785-141.313 612.785C-140.766 612.785-140.258 612.926-139.788 613.209C-139.317 613.492-138.96 613.879-138.715 614.372C-138.47 614.864-138.348 615.644-138.348 616.712L-138.348 621.727L-140.083 621.727L-140.083 616.731C-140.083 615.835-140.22 615.195-140.493 614.81C-140.766 614.426-141.224 614.234-141.866 614.234C-142.686 614.234-143.382 614.644-143.954 615.463L-143.954 621.727L-145.727 621.727L-145.727 612.956L-143.954 612.956Z"/>
<path d="M-137.157 614.348L-133.896 611.145L-133.896 612.956L-131.122 612.956L-131.122 614.52L-133.896 614.52L-133.896 618.819C-133.896 619.823-133.48 620.325-132.647 620.325C-132.025 620.325-131.367 620.115-130.674 619.696L-130.674 621.317C-131.341 621.692-132.069 621.879-132.857 621.879C-133.652 621.879-134.313 621.647-134.84 621.183C-135.005 621.043-135.142 620.886-135.25 620.711C-135.358 620.536-135.449 620.308-135.522 620.025C-135.595 619.742-135.631 619.203-135.631 618.409L-135.631 614.52L-137.157 614.52L-137.157 614.348Z"/>
<path d="M-123.915 616.455L-123.915 620.182C-123.915 620.481-123.814 620.63-123.61 620.63C-123.4 620.63-123.073 620.475-122.628 620.163L-122.628 621.221C-123.022 621.475-123.339 621.649-123.577 621.741C-123.815 621.833-124.065 621.879-124.325 621.879C-125.069 621.879-125.507 621.587-125.641 621.002C-126.378 621.574-127.163 621.86-127.995 621.86C-128.605 621.86-129.114 621.658-129.521 621.255C-129.927 620.851-130.131 620.344-130.131 619.734C-130.131 619.181-129.932 618.687-129.535 618.252C-129.138 617.816-128.574 617.472-127.843 617.217L-125.622 616.455L-125.622 615.988C-125.622 614.933-126.149 614.405-127.204 614.405C-128.151 614.405-129.073 614.895-129.969 615.873L-129.969 613.976C-129.295 613.182-128.326 612.785-127.061 612.785C-126.114 612.785-125.355 613.032-124.783 613.528C-124.592 613.687-124.421 613.898-124.268 614.162C-124.115 614.426-124.019 614.69-123.977 614.953C-123.936 615.217-123.915 615.718-123.915 616.455ZM-125.622 619.992L-125.622 617.389L-126.785 617.837C-127.376 618.072-127.794 618.309-128.038 618.547C-128.283 618.786-128.405 619.083-128.405 619.439C-128.405 619.801-128.289 620.096-128.057 620.325C-127.825 620.554-127.525 620.668-127.156 620.668C-126.604 620.668-126.092 620.443-125.622 619.992Z"/>
<path d="M-122.323 614.348L-119.063 611.145L-119.063 612.956L-116.289 612.956L-116.289 614.52L-119.063 614.52L-119.063 618.819C-119.063 619.823-118.647 620.325-117.814 620.325C-117.191 620.325-116.534 620.115-115.841 619.696L-115.841 621.317C-116.508 621.692-117.236 621.879-118.024 621.879C-118.818 621.879-119.479 621.647-120.007 621.183C-120.172 621.043-120.309 620.886-120.417 620.711C-120.525 620.536-120.615 620.308-120.688 620.025C-120.761 619.742-120.798 619.203-120.798 618.409L-120.798 614.52L-122.323 614.52L-122.323 614.348Z"/>
<path d="M-107.118 617.494L-113.286 617.494C-113.242 618.333-112.96 619-112.442 619.496C-111.924 619.992-111.256 620.239-110.436 620.239C-109.292 620.239-108.237 619.883-107.271 619.172L-107.271 620.869C-107.805 621.224-108.334 621.479-108.858 621.631C-109.382 621.784-109.997 621.86-110.703 621.86C-111.669 621.86-112.45 621.66-113.048 621.259C-113.645 620.859-114.123 620.32-114.482 619.644C-114.842 618.967-115.021 618.183-115.021 617.294C-115.021 615.959-114.643 614.874-113.887 614.038C-113.13 613.202-112.148 612.785-110.941 612.785C-109.778 612.785-108.85 613.191-108.157 614.005C-107.465 614.818-107.118 615.908-107.118 617.275L-107.118 617.494ZM-113.248 616.455L-108.834 616.455C-108.879 615.762-109.085 615.228-109.454 614.853C-109.822 614.478-110.318 614.291-110.941 614.291C-111.564 614.291-112.074 614.478-112.471 614.853C-112.868 615.228-113.127 615.762-113.248 616.455Z"/>
<path d="M-102.647 620.735C-102.647 621.053-102.76 621.323-102.986 621.545C-103.211 621.768-103.486 621.879-103.81 621.879C-104.153 621.879-104.441 621.769-104.673 621.55C-104.905 621.331-105.021 621.059-105.021 620.735C-105.021 620.392-104.907 620.104-104.678 619.872C-104.449 619.64-104.169 619.524-103.839 619.524C-103.496 619.524-103.211 619.64-102.986 619.872C-102.76 620.104-102.647 620.392-102.647 620.735ZM-104.03 617.57L-104.182 617.084C-104.316 616.703-104.47 615.835-104.644 614.481C-104.819 613.128-104.907 611.977-104.907 611.031C-104.907 609.168-104.541 608.237-103.81 608.237C-103.099 608.237-102.743 609.143-102.743 610.954C-102.743 612.46-102.886 614.002-103.172 615.578L-103.429 617.036L-103.582 617.589C-103.639 617.786-103.725 617.885-103.839 617.885C-103.909 617.885-103.972 617.78-104.03 617.57Z"/>
</g>
</g>
</svg>
